Coordinates
version=1
nRows=20
nColumns=38
inDegrees=no

Units are S.I. units (second, meters, Newtons, ...)
If the header above contains a line with 'inDegrees', this indicates whether rotational values are in degrees (yes) or radians (no).

endheader
time	pelvis_tilt	pelvis_list	pelvis_rotation	pelvis_tx	pelvis_ty	pelvis_tz	hip_flexion_r	hip_adduction_r	hip_rotation_r	knee_angle_r	ankle_angle_r	subtalar_angle_r	mtp_angle_r	hip_flexion_l	hip_adduction_l	hip_rotation_l	knee_angle_l	ankle_angle_l	subtalar_angle_l	mtp_angle_l	lumbar_extension	lumbar_bending	lumbar_rotation	arm_flex_r	arm_add_r	arm_rot_r	elbow_flex_r	pro_sup_r	wrist_flex_r	wrist_dev_r	arm_flex_l	arm_add_l	arm_rot_l	elbow_flex_l	pro_sup_l	wrist_flex_l	wrist_dev_l
0.68	-2.62018	1.29803	-1.89847	0.745402	0.100695	0.920159	0.385544	-0.41541	-0.333798	0.957939	-0.140252	0	0	-0.303196	0.119912	-0.290079	0.420848	-0.0919196	0	0	-0.206156	-0.023443	0.10936	-0.296464	-0.695512	-0.268924	1.69698	0.637551	0	0	0.740016	-0.565008	0.999371	1.18422	0.51454	0	0
0.69	-2.60182	1.30458	-1.92133	0.745981	0.110455	0.918349	0.394331	-0.411416	-0.338283	0.902097	-0.128324	0	0	-0.308186	0.123801	-0.284551	0.416194	-0.0876078	0	0	-0.198874	-0.0260636	0.113557	-0.298215	-0.695846	-0.27033	1.69771	0.635997	0	0	0.738534	-0.563472	0.997313	1.18327	0.515414	0	0
0.7	-2.58097	1.3117	-1.94703	0.746625	0.120372	0.916376	0.401575	-0.405985	-0.341531	0.844051	-0.10624	0	0	-0.312501	0.12787	-0.279198	0.411983	-0.0803181	0	0	-0.190426	-0.028868	0.118089	-0.299973	-0.695108	-0.272148	1.69835	0.638487	0	0	0.736251	-0.561742	0.99442	1.18188	0.518452	0	0
0.71	-2.5588	1.31876	-1.97431	0.747326	0.130411	0.914322	0.406651	-0.39928	-0.343719	0.784541	-0.0856392	0	0	-0.316872	0.131894	-0.273904	0.407925	-0.0734174	0	0	-0.181621	-0.0317276	0.12299	-0.301938	-0.69416	-0.274028	1.69907	0.642382	0	0	0.73403	-0.559896	0.992056	1.18035	0.521386	0	0
0.72	-2.53672	1.32551	-2.00144	0.748109	0.140523	0.912264	0.409024	-0.390956	-0.343992	0.7239	-0.0651228	0	0	-0.321406	0.135428	-0.268633	0.404278	-0.0666234	0	0	-0.172947	-0.0343193	0.127784	-0.303419	-0.692519	-0.276143	1.69943	0.646086	0	0	0.731694	-0.557921	0.989632	1.1784	0.523813	0	0
0.73	-2.51768	1.33144	-2.02501	0.748974	0.150706	0.910298	0.407549	-0.38089	-0.341784	0.663083	-0.0444901	0	0	-0.326814	0.137823	-0.263013	0.401211	-0.059797	0	0	-0.165359	-0.036184	0.132112	-0.304464	-0.690365	-0.278419	1.69949	0.649942	0	0	0.729451	-0.555942	0.987191	1.17624	0.525982	0	0
0.74	-2.50596	1.33548	-2.04049	0.749844	0.160944	0.90852	0.400986	-0.369745	-0.33764	0.604247	-0.0264822	0	0	-0.334375	0.138518	-0.258036	0.399179	-0.0538474	0	0	-0.160642	-0.0368428	0.135655	-0.305212	-0.688385	-0.280993	1.69981	0.653702	0	0	0.727538	-0.554296	0.984855	1.17487	0.5289	0	0
0.75	-2.50488	1.33761	-2.04382	0.750658	0.171234	0.906981	0.388299	-0.357433	-0.332133	0.547855	-0.0166447	0	0	-0.344227	0.136769	-0.252661	0.399084	-0.0458611	0	0	-0.159346	-0.0356596	0.137197	-0.304567	-0.683845	-0.285234	1.7002	0.666406	0	0	0.723761	-0.552539	0.978141	1.17389	0.540982	0	0
0.76	-2.51059	1.33701	-2.03801	0.751369	0.181626	0.905606	0.372946	-0.34802	-0.330953	0.5062	-0.00639438	0	0	-0.357108	0.133856	-0.245071	0.399861	-0.0418842	0	0	-0.161272	-0.0341867	0.136267	-0.304371	-0.68686	-0.284193	1.70131	0.657436	0	0	0.724306	-0.552748	0.979272	1.17461	0.533041	0	0
0.77	-2.50919	1.33668	-2.03781	0.752003	0.19229	0.904037	0.366351	-0.345372	-0.337495	0.49551	-0.00120434	0	0	-0.368154	0.132025	-0.234489	0.402705	-0.0371598	0	0	-0.161523	-0.0342329	0.133888	-0.304377	-0.686093	-0.285005	1.70256	0.65629	0	0	0.723697	-0.553209	0.978534	1.17534	0.532985	0	0
0.78	-2.50879	1.33658	-2.0366	0.752692	0.20318	0.902487	0.362465	-0.343132	-0.343015	0.500158	-0.00196266	0	0	-0.378396	0.129605	-0.223896	0.406849	-0.0363374	0	0	-0.16134	-0.0339274	0.132092	-0.305699	-0.685498	-0.286414	1.70397	0.657636	0	0	0.72337	-0.553227	0.978569	1.17557	0.533639	0	0
0.79	-2.51754	1.33362	-2.02474	0.753315	0.214131	0.90128	0.355475	-0.34153	-0.351246	0.517527	-0.00353619	0	0	-0.392392	0.126423	-0.207938	0.411035	-0.0323536	0	0	-0.165242	-0.0326467	0.128738	-0.306929	-0.686187	-0.287489	1.70589	0.659529	0	0	0.724238	-0.553514	0.979485	1.17626	0.532898	0	0
0.8	-2.5262	1.32974	-2.01246	0.753872	0.225307	0.900191	0.349713	-0.341698	-0.361088	0.547768	-0.00609827	0	0	-0.407027	0.123736	-0.190328	0.415692	-0.0295998	0	0	-0.169579	-0.0315908	0.125036	-0.308663	-0.686464	-0.289374	1.70785	0.661589	0	0	0.725475	-0.553882	0.981502	1.1769	0.532169	0	0
0.81	-2.53672	1.32559	-1.9983	0.754438	0.236658	0.899299	0.341886	-0.340226	-0.368378	0.575158	-0.00877219	0	0	-0.421515	0.120779	-0.172333	0.42132	-0.0290183	0	0	-0.174096	-0.0299873	0.121119	-0.310468	-0.686288	-0.291231	1.70996	0.659579	0	0	0.72597	-0.554443	0.983087	1.1776	0.531895	0	0
0.82	-2.54916	1.32159	-1.98128	0.755012	0.248017	0.898665	0.332865	-0.337754	-0.376356	0.595968	-0.0209936	0	0	-0.434659	0.117374	-0.149882	0.429856	-0.0287392	0	0	-0.178832	-0.0276511	0.115832	-0.311431	-0.686011	-0.291715	1.71146	0.659225	0	0	0.724995	-0.555059	0.982485	1.17814	0.533643	0	0
0.83	-2.56291	1.31958	-1.96431	0.755763	0.259401	0.898165	0.326011	-0.332321	-0.379788	0.607867	-0.0270801	0	0	-0.443842	0.113287	-0.129246	0.442105	-0.0312111	0	0	-0.1816	-0.024133	0.112091	-0.312766	-0.686721	-0.29111	1.71232	0.658596	0	0	0.72282	-0.554945	0.981145	1.17783	0.533384	0	0
0.84	-2.56786	1.31991	-1.95554	0.756482	0.270885	0.897676	0.324923	-0.330348	-0.386891	0.623597	-0.0548355	0	0	-0.447276	0.11164	-0.100268	0.460742	-0.0281483	0	0	-0.180897	-0.02177	0.107467	-0.313404	-0.682611	-0.292392	1.71219	0.668332	0	0	0.716977	-0.554414	0.974423	1.17696	0.5451	0	0
0.85	-2.57555	1.31909	-1.94469	0.757373	0.282511	0.897527	0.319967	-0.327555	-0.394541	0.636813	-0.0753075	0	0	-0.450341	0.11021	-0.0704916	0.482374	-0.0336847	0	0	-0.181442	-0.0194662	0.103975	-0.31571	-0.683208	-0.29128	1.71263	0.665007	0	0	0.714561	-0.55483	0.974776	1.17678	0.539698	0	0
0.86	-2.58133	1.31883	-1.93559	0.758463	0.294311	0.897582	0.314459	-0.325455	-0.403253	0.651564	-0.100906	0	0	-0.450569	0.109813	-0.0336212	0.509563	-0.0374316	0	0	-0.181063	-0.0178573	0.100201	-0.317732	-0.681392	-0.290516	1.71251	0.667914	0	0	0.711029	-0.555714	0.973621	1.17651	0.539987	0	0
0.87	-2.5862	1.31853	-1.92753	0.759635	0.306154	0.897889	0.309778	-0.324604	-0.41096	0.671012	-0.128201	0	0	-0.448332	0.111152	0.0102442	0.543128	-0.0414062	0	0	-0.180542	-0.0167566	0.0962463	-0.319148	-0.678385	-0.289412	1.71194	0.6731	0	0	0.707173	-0.557065	0.972399	1.1762	0.541301	0	0
